<svg width="24" height="24" viewBox="0 0 24 24" fill="none" xmlns="http://www.w3.org/2000/svg">
<g clip-path="url(#paint0_angular_0_5466_clip_path)" data-figma-skip-parse="true"><g transform="matrix(0.01125 -0.0150276 0.0140884 0.012 12.75 12)"><foreignObject x="-1104.35" y="-1104.35" width="2208.69" height="2208.69"><div xmlns="http://www.w3.org/1999/xhtml" style="background:conic-gradient(from 90deg,rgba(252, 167, 0, 1) 0deg,rgba(252, 167, 0, 1) 72.6913deg,rgba(106, 153, 34, 1) 72.7273deg,rgba(106, 153, 34, 1) 167.895deg,rgba(24, 104, 219, 1) 167.931deg,rgba(24, 104, 219, 1) 252.667deg,rgba(175, 89, 224, 1) 252.703deg,rgba(175, 89, 224, 1) 360deg);height:100%;width:100%;opacity:1"></div></foreignObject></g></g><path d="M20.25 4.5C20.25 4.08579 19.9142 3.75 19.5 3.75H17.25V6.75H15V3.75H9V6.75H6.75V3.75H4.5C4.08579 3.75 3.75 4.08579 3.75 4.5V9H20.25V4.5ZM22.5 11.25H3.75V19.5C3.75 19.9142 4.08579 20.25 4.5 20.25H11.25V22.5H4.5C2.84315 22.5 1.5 21.1569 1.5 19.5V4.5C1.5 2.84315 2.84315 1.5 4.5 1.5H6.75V0H9V1.5H15V0H17.25V1.5H19.5L19.8062 1.51611C21.3192 1.66951 22.5 2.94652 22.5 4.5V11.25Z" data-figma-gradient-fill="{&#34;type&#34;:&#34;GRADIENT_ANGULAR&#34;,&#34;stops&#34;:[{&#34;color&#34;:{&#34;r&#34;:0.98823529481887817,&#34;g&#34;:0.65490198135375977,&#34;b&#34;:0.0,&#34;a&#34;:1.0},&#34;position&#34;:0.0},{&#34;color&#34;:{&#34;r&#34;:0.98823529481887817,&#34;g&#34;:0.65490198135375977,&#34;b&#34;:0.0,&#34;a&#34;:1.0},&#34;position&#34;:0.20192027091979980},{&#34;color&#34;:{&#34;r&#34;:0.41662007570266724,&#34;g&#34;:0.60310000181198120,&#34;b&#34;:0.13690000772476196,&#34;a&#34;:1.0},&#34;position&#34;:0.20202027261257172},{&#34;color&#34;:{&#34;r&#34;:0.41662007570266724,&#34;g&#34;:0.60310000181198120,&#34;b&#34;:0.13690000772476196,&#34;a&#34;:1.0},&#34;position&#34;:0.46637400984764099},{&#34;color&#34;:{&#34;r&#34;:0.094117648899555206,&#34;g&#34;:0.40784314274787903,&#34;b&#34;:0.85882353782653809,&#34;a&#34;:1.0},&#34;position&#34;:0.46647399663925171},{&#34;color&#34;:{&#34;r&#34;:0.094117648899555206,&#34;g&#34;:0.40784314274787903,&#34;b&#34;:0.85882353782653809,&#34;a&#34;:1.0},&#34;position&#34;:0.70185315608978271},{&#34;color&#34;:{&#34;r&#34;:0.68627452850341797,&#34;g&#34;:0.34901961684226990,&#34;b&#34;:0.87843137979507446,&#34;a&#34;:1.0},&#34;position&#34;:0.70195317268371582},{&#34;color&#34;:{&#34;r&#34;:0.68627452850341797,&#34;g&#34;:0.34901961684226990,&#34;b&#34;:0.87843137979507446,&#34;a&#34;:1.0},&#34;position&#34;:1.0}],&#34;stopsVar&#34;:[{&#34;color&#34;:{&#34;r&#34;:0.98823529481887817,&#34;g&#34;:0.65490198135375977,&#34;b&#34;:0.0,&#34;a&#34;:1.0},&#34;position&#34;:0.0},{&#34;color&#34;:{&#34;r&#34;:0.98823529481887817,&#34;g&#34;:0.65490198135375977,&#34;b&#34;:0.0,&#34;a&#34;:1.0},&#34;position&#34;:0.20192027091979980},{&#34;color&#34;:{&#34;r&#34;:0.41662007570266724,&#34;g&#34;:0.60310000181198120,&#34;b&#34;:0.13690000772476196,&#34;a&#34;:1.0},&#34;position&#34;:0.20202027261257172},{&#34;color&#34;:{&#34;r&#34;:0.41662007570266724,&#34;g&#34;:0.60310000181198120,&#34;b&#34;:0.13690000772476196,&#34;a&#34;:1.0},&#34;position&#34;:0.46637400984764099},{&#34;color&#34;:{&#34;r&#34;:0.094117648899555206,&#34;g&#34;:0.40784314274787903,&#34;b&#34;:0.85882353782653809,&#34;a&#34;:1.0},&#34;position&#34;:0.46647399663925171},{&#34;color&#34;:{&#34;r&#34;:0.094117648899555206,&#34;g&#34;:0.40784314274787903,&#34;b&#34;:0.85882353782653809,&#34;a&#34;:1.0},&#34;position&#34;:0.70185315608978271},{&#34;color&#34;:{&#34;r&#34;:0.68627452850341797,&#34;g&#34;:0.34901961684226990,&#34;b&#34;:0.87843137979507446,&#34;a&#34;:1.0},&#34;position&#34;:0.70195317268371582},{&#34;color&#34;:{&#34;r&#34;:0.68627452850341797,&#34;g&#34;:0.34901961684226990,&#34;b&#34;:0.87843137979507446,&#34;a&#34;:1.0},&#34;position&#34;:1.0}],&#34;transform&#34;:{&#34;m00&#34;:22.500005722045898,&#34;m01&#34;:28.176841735839844,&#34;m02&#34;:-12.588424682617188,&#34;m10&#34;:-30.05529785156250,&#34;m11&#34;:24.000005722045898,&#34;m12&#34;:15.027643203735352},&#34;opacity&#34;:1.0,&#34;blendMode&#34;:&#34;NORMAL&#34;,&#34;visible&#34;:true}"/>
<g clip-path="url(#paint1_angular_0_5466_clip_path)" data-figma-skip-parse="true"><g transform="matrix(0.01125 -0.0150276 0.0140884 0.012 12.75 12)"><foreignObject x="-1104.35" y="-1104.35" width="2208.69" height="2208.69"><div xmlns="http://www.w3.org/1999/xhtml" style="background:conic-gradient(from 90deg,rgba(252, 167, 0, 1) 0deg,rgba(252, 167, 0, 1) 72.6913deg,rgba(106, 153, 34, 1) 72.7273deg,rgba(106, 153, 34, 1) 167.895deg,rgba(24, 104, 219, 1) 167.931deg,rgba(24, 104, 219, 1) 252.667deg,rgba(175, 89, 224, 1) 252.703deg,rgba(175, 89, 224, 1) 360deg);height:100%;width:100%;opacity:1"></div></foreignObject></g></g><path d="M18.9243 13.5132C19.3242 13.5756 19.6658 13.851 19.8076 14.2397L20.729 16.7695L23.2603 17.6924C23.7043 17.8544 24 18.2773 24 18.75L23.9868 18.9243C23.9244 19.3242 23.649 19.6658 23.2603 19.8076L20.729 20.729L19.8076 23.2603C19.6658 23.649 19.3242 23.9244 18.9243 23.9868L18.75 24C18.2773 24 17.8544 23.7043 17.6924 23.2603L16.7695 20.729L14.2397 19.8076C13.851 19.6658 13.5756 19.3242 13.5132 18.9243L13.5 18.75C13.5 18.2773 13.7957 17.8544 14.2397 17.6924L16.7695 16.7695L17.6924 14.2397L17.7656 14.0801C17.9336 13.7766 18.233 13.5667 18.5757 13.5132L18.75 13.5L18.9243 13.5132Z" data-figma-gradient-fill="{&#34;type&#34;:&#34;GRADIENT_ANGULAR&#34;,&#34;stops&#34;:[{&#34;color&#34;:{&#34;r&#34;:0.98823529481887817,&#34;g&#34;:0.65490198135375977,&#34;b&#34;:0.0,&#34;a&#34;:1.0},&#34;position&#34;:0.0},{&#34;color&#34;:{&#34;r&#34;:0.98823529481887817,&#34;g&#34;:0.65490198135375977,&#34;b&#34;:0.0,&#34;a&#34;:1.0},&#34;position&#34;:0.20192027091979980},{&#34;color&#34;:{&#34;r&#34;:0.41662007570266724,&#34;g&#34;:0.60310000181198120,&#34;b&#34;:0.13690000772476196,&#34;a&#34;:1.0},&#34;position&#34;:0.20202027261257172},{&#34;color&#34;:{&#34;r&#34;:0.41662007570266724,&#34;g&#34;:0.60310000181198120,&#34;b&#34;:0.13690000772476196,&#34;a&#34;:1.0},&#34;position&#34;:0.46637400984764099},{&#34;color&#34;:{&#34;r&#34;:0.094117648899555206,&#34;g&#34;:0.40784314274787903,&#34;b&#34;:0.85882353782653809,&#34;a&#34;:1.0},&#34;position&#34;:0.46647399663925171},{&#34;color&#34;:{&#34;r&#34;:0.094117648899555206,&#34;g&#34;:0.40784314274787903,&#34;b&#34;:0.85882353782653809,&#34;a&#34;:1.0},&#34;position&#34;:0.70185315608978271},{&#34;color&#34;:{&#34;r&#34;:0.68627452850341797,&#34;g&#34;:0.34901961684226990,&#34;b&#34;:0.87843137979507446,&#34;a&#34;:1.0},&#34;position&#34;:0.70195317268371582},{&#34;color&#34;:{&#34;r&#34;:0.68627452850341797,&#34;g&#34;:0.34901961684226990,&#34;b&#34;:0.87843137979507446,&#34;a&#34;:1.0},&#34;position&#34;:1.0}],&#34;stopsVar&#34;:[{&#34;color&#34;:{&#34;r&#34;:0.98823529481887817,&#34;g&#34;:0.65490198135375977,&#34;b&#34;:0.0,&#34;a&#34;:1.0},&#34;position&#34;:0.0},{&#34;color&#34;:{&#34;r&#34;:0.98823529481887817,&#34;g&#34;:0.65490198135375977,&#34;b&#34;:0.0,&#34;a&#34;:1.0},&#34;position&#34;:0.20192027091979980},{&#34;color&#34;:{&#34;r&#34;:0.41662007570266724,&#34;g&#34;:0.60310000181198120,&#34;b&#34;:0.13690000772476196,&#34;a&#34;:1.0},&#34;position&#34;:0.20202027261257172},{&#34;color&#34;:{&#34;r&#34;:0.41662007570266724,&#34;g&#34;:0.60310000181198120,&#34;b&#34;:0.13690000772476196,&#34;a&#34;:1.0},&#34;position&#34;:0.46637400984764099},{&#34;color&#34;:{&#34;r&#34;:0.094117648899555206,&#34;g&#34;:0.40784314274787903,&#34;b&#34;:0.85882353782653809,&#34;a&#34;:1.0},&#34;position&#34;:0.46647399663925171},{&#34;color&#34;:{&#34;r&#34;:0.094117648899555206,&#34;g&#34;:0.40784314274787903,&#34;b&#34;:0.85882353782653809,&#34;a&#34;:1.0},&#34;position&#34;:0.70185315608978271},{&#34;color&#34;:{&#34;r&#34;:0.68627452850341797,&#34;g&#34;:0.34901961684226990,&#34;b&#34;:0.87843137979507446,&#34;a&#34;:1.0},&#34;position&#34;:0.70195317268371582},{&#34;color&#34;:{&#34;r&#34;:0.68627452850341797,&#34;g&#34;:0.34901961684226990,&#34;b&#34;:0.87843137979507446,&#34;a&#34;:1.0},&#34;position&#34;:1.0}],&#34;transform&#34;:{&#34;m00&#34;:22.500005722045898,&#34;m01&#34;:28.176841735839844,&#34;m02&#34;:-12.588424682617188,&#34;m10&#34;:-30.05529785156250,&#34;m11&#34;:24.000005722045898,&#34;m12&#34;:15.027643203735352},&#34;opacity&#34;:1.0,&#34;blendMode&#34;:&#34;NORMAL&#34;,&#34;visible&#34;:true}"/>
<defs>
<clipPath id="paint0_angular_0_5466_clip_path"><path d="M20.25 4.5C20.25 4.08579 19.9142 3.75 19.5 3.75H17.25V6.75H15V3.75H9V6.75H6.75V3.75H4.5C4.08579 3.75 3.75 4.08579 3.75 4.5V9H20.25V4.5ZM22.5 11.25H3.75V19.5C3.75 19.9142 4.08579 20.25 4.5 20.25H11.25V22.5H4.5C2.84315 22.5 1.5 21.1569 1.5 19.5V4.5C1.5 2.84315 2.84315 1.5 4.5 1.5H6.75V0H9V1.5H15V0H17.25V1.5H19.5L19.8062 1.51611C21.3192 1.66951 22.5 2.94652 22.5 4.5V11.25Z"/></clipPath><clipPath id="paint1_angular_0_5466_clip_path"><path d="M18.9243 13.5132C19.3242 13.5756 19.6658 13.851 19.8076 14.2397L20.729 16.7695L23.2603 17.6924C23.7043 17.8544 24 18.2773 24 18.75L23.9868 18.9243C23.9244 19.3242 23.649 19.6658 23.2603 19.8076L20.729 20.729L19.8076 23.2603C19.6658 23.649 19.3242 23.9244 18.9243 23.9868L18.75 24C18.2773 24 17.8544 23.7043 17.6924 23.2603L16.7695 20.729L14.2397 19.8076C13.851 19.6658 13.5756 19.3242 13.5132 18.9243L13.5 18.75C13.5 18.2773 13.7957 17.8544 14.2397 17.6924L16.7695 16.7695L17.6924 14.2397L17.7656 14.0801C17.9336 13.7766 18.233 13.5667 18.5757 13.5132L18.75 13.5L18.9243 13.5132Z"/></clipPath></defs>
</svg>
