<svg width="14" height="14" viewBox="0 0 14 14" fill="none" xmlns="http://www.w3.org/2000/svg">
<path fill-rule="evenodd" clip-rule="evenodd" d="M10.5311 2.54077C8.29855 0.768313 5.0425 0.914165 2.97833 2.97833C0.757223 5.19944 0.757223 8.80056 2.97833 11.0217C4.08901 12.1324 5.54343 12.6875 7 12.6875V14C5.20956 14 3.41696 13.3165 2.05025 11.9497C-0.683417 9.21608 -0.683417 4.78392 2.05025 2.05025C4.78392 -0.683417 9.21608 -0.683417 11.9497 2.05025L12.4138 2.51429L7.24529 7.68279L6.31721 6.75471L8.33364 4.73828C7.32701 4.14376 6.00874 4.27895 5.14385 5.14384C4.11872 6.16897 4.11872 7.83103 5.14385 8.85616C5.65654 9.36885 6.32719 9.625 7 9.625V10.9375C5.99332 10.9375 4.98448 10.5529 4.21577 9.78423C2.67808 8.24654 2.67808 5.75346 4.21577 4.21577C5.59535 2.83618 7.74397 2.69433 9.2817 3.79022L10.5311 2.54077Z" fill="#292A2E"/>
<path fill-rule="evenodd" clip-rule="evenodd" d="M12.7577 4.25401C13.0991 4.13233 13.4745 4.31045 13.5962 4.65186L13.6037 4.67325C13.7243 5.01505 13.545 5.38986 13.2032 5.51043C12.8614 5.63099 12.4866 5.45165 12.366 5.10985L12.3598 5.09249C12.2382 4.75109 12.4163 4.37569 12.7577 4.25401ZM10.3096 6.5056C10.6716 6.52342 10.9506 6.83131 10.9328 7.19331L10.9321 7.2061L10.9314 7.21889C10.9113 7.58076 10.6016 7.85781 10.2397 7.83768C9.87786 7.81756 9.60082 7.50789 9.62094 7.14601L9.62141 7.13741L9.62184 7.12881C9.63966 6.76681 9.94755 6.48779 10.3096 6.5056ZM13.3689 6.66629C13.7309 6.68468 14.0094 6.99302 13.991 7.35499L13.9904 7.36638L13.9898 7.37776C13.9703 7.73967 13.661 8.01721 13.2991 7.99767C12.9372 7.97812 12.6597 7.66889 12.6792 7.30698L12.6797 7.29769L12.6802 7.2884C12.6986 6.92642 13.0069 6.6479 13.3689 6.66629ZM9.68976 8.99064C9.93315 9.2592 9.91274 9.67422 9.64418 9.9176C9.63787 9.92332 9.63155 9.92901 9.62521 9.93469C9.35508 10.1763 8.94021 10.1533 8.69856 9.88313C8.45691 9.613 8.48 9.19813 8.75012 8.95648L8.7628 8.94506C9.03136 8.70168 9.44638 8.72209 9.68976 8.99064ZM13.0135 9.12988C13.3408 9.28551 13.48 9.67702 13.3244 10.0043L13.3146 10.0248C13.1579 10.3516 12.7659 10.4895 12.4391 10.3328C12.1123 10.1761 11.9744 9.78418 12.1311 9.45737L12.139 9.44075C12.2946 9.11343 12.6862 8.97425 13.0135 9.12988ZM11.7394 11.2676C11.9824 11.5365 11.9613 11.9515 11.6923 12.1944L11.6755 12.2096C11.4057 12.4517 10.9908 12.4293 10.7487 12.1596C10.5067 11.8898 10.5291 11.4749 10.7988 11.2328L10.8125 11.2205C11.0815 10.9775 11.4965 10.9986 11.7394 11.2676ZM9.74602 12.7577C9.8677 13.0991 9.68958 13.4745 9.34818 13.5962L9.32678 13.6038C8.98498 13.7243 8.61017 13.545 8.4896 13.2032C8.36904 12.8614 8.54839 12.4866 8.89018 12.366L8.90754 12.3599C9.24894 12.2382 9.62434 12.4163 9.74602 12.7577Z" fill="#292A2E"/>
</svg>
