<svg preserveAspectRatio="none" width="100%" height="100%" overflow="visible" style="display: block;" viewBox="0 0 14 14" fill="none" xmlns="http://www.w3.org/2000/svg">
<g id="Icon">
<path id="Glyph" d="M0 12V9H1.5V12C1.5 12.2761 1.72386 12.5 2 12.5H5V14H2C0.89543 14 2.81862e-08 13.1046 0 12ZM12.5 12V9H14V12C14 13.1046 13.1046 14 12 14H9V12.5H12C12.2761 12.5 12.5 12.2761 12.5 12ZM8.75 7C8.75 6.0335 7.9665 5.25 7 5.25C6.0335 5.25 5.25 6.0335 5.25 7C5.25 7.9665 6.0335 8.75 7 8.75C7.9665 8.75 8.75 7.9665 8.75 7ZM0 2C0 0.89543 0.895431 2.81862e-08 2 0H5V1.5H2C1.72386 1.5 1.5 1.72386 1.5 2V5H0V2ZM12.5 2C12.5 1.72386 12.2761 1.5 12 1.5H9V0H12C13.1046 0 14 0.895431 14 2V5H12.5V2ZM10.25 7C10.25 8.79493 8.79493 10.25 7 10.25C5.20507 10.25 3.75 8.79493 3.75 7C3.75 5.20507 5.20507 3.75 7 3.75C8.79493 3.75 10.25 5.20507 10.25 7Z" fill="var(--fill-0, #292A2E)"/>
</g>
</svg>
